<svg width="370" height="161" viewBox="0 0 370 161" fill="none" xmlns="http://www.w3.org/2000/svg">
<g filter="url(#filter0_i_204_87)">
<path fill-rule="evenodd" clip-rule="evenodd" d="M0 -437H370V154.035L359.722 161L349.444 154.035L339.167 161L328.889 154.035L318.611 161L308.333 154.035L298.056 161L287.778 154.035L277.5 161L267.222 154.035L256.944 161L246.667 154.035L236.389 161L226.111 154.035L215.833 161L205.556 154.035L195.278 161L185 154.035L174.722 161L164.444 154.035L154.167 161L143.889 154.035L133.611 161L123.333 154.035L113.056 161L102.778 154.035L92.5 161L82.2222 154.035L71.9444 161L61.6667 154.035L51.3889 161L41.1111 154.035L30.8333 161L20.5556 154.035L10.2778 161L0 154.035V-437Z" fill="#F8F6F0" fill-opacity="0.9"/>
</g>
<path fill-rule="evenodd" clip-rule="evenodd" d="M0 -437H370V154.035L359.722 161L349.444 154.035L339.167 161L328.889 154.035L318.611 161L308.333 154.035L298.056 161L287.778 154.035L277.5 161L267.222 154.035L256.944 161L246.667 154.035L236.389 161L226.111 154.035L215.833 161L205.556 154.035L195.278 161L185 154.035L174.722 161L164.444 154.035L154.167 161L143.889 154.035L133.611 161L123.333 154.035L113.056 161L102.778 154.035L92.5 161L82.2222 154.035L71.9444 161L61.6667 154.035L51.3889 161L41.1111 154.035L30.8333 161L20.5556 154.035L10.2778 161L0 154.035V-437Z" stroke="#D6D6D6" stroke-width="0.5"/>
<defs>
<filter id="filter0_i_204_87" x="-0.25" y="-437.25" width="371.5" height="602.552" filterUnits="userSpaceOnUse" color-interpolation-filters="sRGB">
<feFlood flood-opacity="0" result="BackgroundImageFix"/>
<feBlend mode="normal" in="SourceGraphic" in2="BackgroundImageFix" result="shape"/>
<feColorMatrix in="SourceAlpha" type="matrix" values="0 0 0 0 0 0 0 0 0 0 0 0 0 0 0 0 0 0 127 0" result="hardAlpha"/>
<feOffset dx="1" dy="4"/>
<feGaussianBlur stdDeviation="7.5"/>
<feComposite in2="hardAlpha" operator="arithmetic" k2="-1" k3="1"/>
<feColorMatrix type="matrix" values="0 0 0 0 0 0 0 0 0 0 0 0 0 0 0 0 0 0 0.1 0"/>
<feBlend mode="normal" in2="shape" result="effect1_innerShadow_204_87"/>
</filter>
</defs>
</svg>
